<?xml version="1.0" encoding="UTF-8"?>
<svg xmlns="http://www.w3.org/2000/svg" version="1.1" viewBox="0 0 59 77">
  <defs>
    <style>
      .cls-1, .cls-2, .cls-3, .cls-4 {
        fill-rule: evenodd;
      }

      .cls-1, .cls-5 {
        fill: #fff;
      }

      .cls-3 {
        fill: #e30a17;
      }

      .cls-4 {
        fill: #292929;
      }
    </style>
  </defs>
  <!-- Generator: Adobe Illustrator 28.7.1, SVG Export Plug-In . SVG Version: 1.2.0 Build 142)  -->
  <g>
    <g id="Layer_1">
      <g>
        <path class="cls-1" d="M29.27,76.27c-1.16-1.36-2.57-2.94-4.24-4.35-2.63-2.26-5.54-3.82-8.8-5.49-3.91-2-7.95-4.06-11-7.65-1.99-2.36-3.36-5.32-4.07-8.81-.6-2.98-.7-6.35-.29-9.73.3-2.44.87-4.88,1.64-7.06.52-1.46.85-2.5,1.12-3.48,1.1-4.05.6-7.87-1.56-12.02-.54-1.03-1.18-1.98-1.91-3.03l-.17-.25.25-.17c1.24-.85,2.56-1.77,3.75-2.85,1.9-1.71,3.44-3.68,4.58-5.88.77-1.47,1.33-3.01,1.88-4.6l.15-.42.33.29c1.65,1.46,3.51,3.11,5.98,3.67.65.15,1.31.22,2.02.22,1.12,0,2.34-.18,3.74-.56,2.42-.65,4.66-.96,6.83-.96s4.4.32,6.81.96c1.4.38,2.62.56,3.74.56.71,0,1.37-.07,2.02-.22,2.47-.56,4.34-2.21,5.98-3.67l.33-.29.15.42c.55,1.58,1.11,3.13,1.88,4.6,1.14,2.2,2.68,4.17,4.58,5.88,1.2,1.09,2.51,2.01,3.76,2.86l.25.17-.17.25c-.72,1.05-1.37,2-1.91,3.03-2.16,4.14-2.66,7.96-1.56,12.02.27.98.6,2.02,1.12,3.48.77,2.18,1.33,4.62,1.64,7.06.41,3.39.32,6.75-.28,9.73-.7,3.49-2.07,6.46-4.06,8.81-3.05,3.59-7.09,5.66-11,7.65-3.26,1.67-6.17,3.24-8.8,5.49-1.67,1.42-3.08,3-4.24,4.35l-.23.26-.23-.26Z"/>
        <path class="cls-4" d="M51.18,59.79s.1-.09.15-.13c-.05.04-.1.09-.15.13"/>
        <path class="cls-2" d="M55.76,53.03c.66-1.76,1.1-3.71,1.31-5.79.45-4.41-.16-9.4-1.68-13.7-.84-2.41-1.56-4.6-1.76-6.85-.26-2.98.51-6.19,2.26-9.56.4-.77.87-1.54,1.49-2.44-2.44-1.66-4.37-3.42-5.9-5.4-1.5-1.94-2.65-4.1-3.61-6.8-1.91,1.68-3.67,2.66-5.53,3.08-1.85.42-3.86.31-6.32-.35-4.81-1.3-8.22-1.3-13.04,0-2.46.66-4.47.77-6.32.35-1.86-.43-3.62-1.41-5.53-3.08-.96,2.7-2.11,4.87-3.61,6.8-1.53,1.98-3.46,3.75-5.9,5.4.62.9,1.09,1.68,1.49,2.44,1.75,3.36,2.51,6.57,2.26,9.56-.2,2.26-.91,4.44-1.76,6.85-1.52,4.29-2.13,9.28-1.69,13.7.21,2.08.66,4.03,1.31,5.79.71,1.9,1.68,3.58,2.88,5,2.88,3.39,6.82,5.41,10.64,7.37,1.58.81,3.21,1.65,4.75,2.57,3,1.8,5.62,4.03,7.99,6.8,2.38-2.77,4.99-5,7.99-6.8,1.53-.92,3.17-1.76,4.75-2.57,3.82-1.95,7.76-3.98,10.64-7.37,1.2-1.41,2.17-3.09,2.88-5"/>
        <path class="cls-4" d="M6.84,58.84s.05.05.07.08c-.02-.02-.05-.05-.07-.08"/>
        <path class="cls-4" d="M7.67,59.66s.1.09.15.13c-.05-.04-.1-.09-.15-.13"/>
        <path class="cls-4" d="M52.09,58.91s.04-.05.07-.07c-.02.02-.04.05-.07.07"/>
        <path class="cls-5" d="M38,6.81v17.96l-.54.36c-1.26.85-3.11,1.09-4.96.66-2.24-.53-3.77-.53-6.01,0-1.85.44-3.7.19-4.96-.65l-.54-.36V6.81c-3.53.51-6.42-.24-9.35-2.41v56.83c.82.53,1.67,1.02,2.55,1.5,2.24,1.19,4.58,2.25,6.8,3.45v-16.86c.88.51,1.81.93,2.73,1.35.71.32,1.38.62,2.02.96,1.15.61,2.19,1.36,3.08,2.22l.67.65.67-.65c.89-.86,1.93-1.61,3.08-2.22.64-.34,1.31-.64,2.02-.96.92-.41,1.85-.83,2.73-1.35v16.86c2.23-1.2,4.56-2.26,6.8-3.45.87-.48,1.73-.97,2.55-1.5V4.4c-2.93,2.17-5.82,2.92-9.35,2.41"/>
        <path class="cls-2" d="M41.83,62.91h.02s.03,0,.05,0c1.12,0,2.92-.57,3.15-2.14.13-.91-.55-1.84-1.59-2.16l-.11-.04.11-.05c.99-.44,1.51-1.25,1.35-2.13-.24-1.32-1.85-1.9-2.95-1.9-.02,0-.05,0-.07,0-1.06,0-2.33.6-2.64,1.61-.12.41-.05.88.19,1.2.14.19.41.42.86.42.56,0,.92-.42,1.03-.82.09-.34.04-.8-.4-1.07h-.02s0-.04,0-.04c.02-.32.32-.53.8-.55.02,0,.03,0,.05,0,.42,0,.79.16,1.04.45.31.35.43.86.34,1.39-.2,1.2-1.09,1.22-2.04,1.24h-.04v.59h.07c.97.06,1.89.1,2.11,1.35.11.61-.09,1.38-.77,1.72-.4.19-.95.17-1.26-.03-.18-.11-.28-.28-.28-.48v-.02h.02c.35-.23.5-.62.39-1.03-.11-.4-.49-.81-1.09-.82-.35,0-.64.13-.83.39-.24.32-.31.8-.17,1.25.32,1.05,1.61,1.67,2.68,1.67"/>
        <path class="cls-1" d="M33.37,54.56c-1.9,0-3.45,1.86-3.45,4.14s1.55,4.14,3.45,4.14,3.44-1.86,3.44-4.14-1.54-4.14-3.44-4.14M33.37,62.19c-.76,0-1.35-1.53-1.35-3.49s.59-3.49,1.35-3.49,1.34,1.53,1.34,3.49-.59,3.49-1.34,3.49"/>
        <path class="cls-1" d="M25.25,62.84c1.87,0,3.39-1.86,3.39-4.14s-1.52-4.14-3.38-4.14c-.81-.02-1.58.25-2.11.74-.53.5-.84,1.27-.79,2.01.04.62.33,1.15.81,1.5.9.64,2.25.65,3.21.04l.15-.1v.18c.04,1.55-.47,3.23-1.28,3.26h0c-.15,0-.27-.04-.35-.12-.13-.13-.14-.33-.13-.52v-.03s.02-.02.02-.02c.15-.23.14-.76-.02-1.07-.18-.34-.53-.52-1.03-.52-.03,0-.07,0-.1,0-.49.02-.84.26-.99.67-.18.48-.02,1.07.38,1.46.57.55,1.57.82,2.22.81M26.08,58.02c-.2.35-.48.54-.83.54s-.64-.18-.83-.52c-.16-.29-.26-.68-.26-1.1,0-.86.37-1.72,1.09-1.72s1.09.87,1.09,1.69c0,.43-.09.83-.26,1.12"/>
        <path class="cls-2" d="M19.87,62.76h-3.67l-.06-.63.99-.47v-4.8h-1.4v-.86c.76-.29,1.64-.53,2.49-1.37h.72v7.02l.99.47-.07.63Z"/>
        <path d="M46.84,22.22c-.98-.73-1.18-2.07-1.35-3.25-.04-.28-.08-.54-.13-.79-.43-2.27-1.39-3.31-2.94-3.17l2.34-3.82c.41-.68.82-.99,1.51-1.4l.09-.05h-3.29l.05.05c.53.51.7.85.33,1.5l-1.97,3.4v-3.89c0-.35.19-.68.57-1.01l.06-.05h-3.65l.06.05c.39.34.57.67.57,1.01v9.8c-.04.73-.08.84-.23.96-.28.21-.42.4-.54.75l-.02.05.05-.02c1.04-.3,3.02-.22,3.94-.04h.05s-.02-.04-.02-.04c-.1-.28-.26-.39-.44-.52-.05-.04-.11-.07-.16-.12-.17-.13-.21-.3-.23-1.03v-4.69c1.44.02,1.66,1.63,1.87,3.19.21,1.56.44,3.18,1.9,3.18.04,0,.08,0,.12,0h1.56l-.07-.05Z"/>
        <path d="M19.6,16.86c-.54-.68-1.2-1.11-1.89-1.23.62-.14,1.11-.45,1.43-.9.87-1.18.75-2.86-.28-4.08-.67-.78-1.25-.92-2.22-.92h-4.55l.06.05c.26.23.57.61.57,1.05v9.8c-.04.73-.08.9-.23,1.03-.05.04-.1.07-.14.11-.19.13-.34.24-.44.53l-.02.06.06-.03c.24-.1,1.63-.43,2.85-.21.21.02.44.05.67.08.91.12,1.94.25,2.75-.04.98-.34,1.71-1.13,2-2.17.32-1.11.08-2.29-.62-3.16M17.46,17.23c.26.82.26,2.24.09,3-.06.28-.21.49-.45.64-.64.39-1.73.15-1.9.11v-4.78h.9c.68,0,1.12.33,1.35,1.03M15.21,15.06v-4.41h.56c.52,0,.62.02.82.14.59.36.61,1.41.62,1.97v.08c.02.96-.14,1.59-.47,1.93-.19.19-.44.29-.75.29h-.77Z"/>
        <path class="cls-5" d="M27.25,9.73v.02c-.08.46-.26.71-.53,1.03l-.03.04h.04c.37.11.65.02,1.02-.12.12-.04.25-.09.41-.14.47-.14,1.22-.1,1.74,0v9.9c0,.29-.11.52-.33.7-.41.34-1.18.45-2.02.3-.71-.13-1.59-.48-1.7-1.35,0-.01,0-.03.01-.04,0,0,0-.01,0-.02.44.05.82-.06,1.08-.31.23-.22.35-.52.33-.88,0-.74-.67-1.14-1.3-1.19-.82-.07-1.24.33-1.44.67-.4.66-.34,1.69.14,2.45.49.76,1.29,1.18,1.88,1.41.58.21,1.18.3,1.8.3,1.23,0,2.5-.34,3.65-.69.23-.1.46-.12.72-.05l.11.03-.08-.08c-.13-.12-.14-.36-.17-1.01v-9.95c0-.43.29-.72.56-.96l.06-.05h-5.98Z"/>
        <path class="cls-3" d="M40.56,37.77c-.85-2.15-1.22-3.78-.26-6,.24-.55.53-1.07.87-1.56-1.58-1.04-2.38-2.58-3.17-4.28-1.63,1.1-3.82,1.24-5.72.79-1.02-.24-1.9-.37-2.78-.37s-1.76.12-2.78.37c-1.89.45-4.08.31-5.72-.79-.8,1.71-1.59,3.24-3.17,4.28.34.49.63,1.01.87,1.56.96,2.21.59,3.84-.26,6-.6,1.51-.92,3.39-.72,5.19.17,1.48.7,2.9,1.73,3.98,1.78,1.87,4.49,2.64,6.75,3.84,1.22.64,2.32,1.43,3.3,2.38.98-.95,2.08-1.74,3.3-2.38,2.25-1.2,4.96-1.97,6.75-3.84,1.04-1.08,1.56-2.5,1.73-3.98.2-1.79-.12-3.68-.72-5.19"/>
        <polygon class="cls-1" points="29.5 35.22 30.24 32.93 32.65 32.93 30.69 31.52 31.45 29.23 29.5 30.65 27.55 29.23 28.31 31.52 26.35 32.93 28.77 32.93 29.5 35.22"/>
        <path class="cls-1" d="M34.54,34.21c1.75,1.44,2.86,3.6,2.86,6,0,4.3-3.56,7.81-7.9,7.81s-7.9-3.51-7.9-7.81c0-2.4,1.11-4.56,2.86-6-.69.99-1.08,2.17-1.08,3.47,0,3.36,2.75,6.11,6.12,6.11s6.12-2.75,6.12-6.11c0-1.29-.4-2.48-1.08-3.47"/>
      </g>
    </g>
  </g>
</svg>